HIERARCHY
ROOT Hips
{
	OFFSET 0.000000 0.000000 0.000000
	CHANNELS 6 Xposition Yposition Zposition Zrotation Yrotation Xrotation 
	JOINT LHipJoint
	{
		OFFSET 0.000000 0.000000 0.000000
		CHANNELS 3 Zrotation Yrotation Xrotation
		JOINT LeftUpLeg
		{
			OFFSET 1.363060 -1.794630 0.839290
			CHANNELS 3 Zrotation Yrotation Xrotation
			JOINT LeftLeg
			{
				OFFSET 2.448110 -6.726130 0.000000
				CHANNELS 3 Zrotation Yrotation Xrotation
				JOINT LeftFoot
				{
					OFFSET 2.562200 -7.039590 0.000000
					CHANNELS 3 Zrotation Yrotation Xrotation
					JOINT LeftToeBase
					{
						OFFSET 0.157640 -0.433110 2.322550
						CHANNELS 3 Zrotation Yrotation Xrotation
						End Site
						{
							OFFSET 0.000000 0.000000 0.000000
						}
					}
				}
			}
		}
	}
	JOINT RHipJoint
	{
		OFFSET 0.000000 0.000000 0.000000
		CHANNELS 3 Zrotation Yrotation Xrotation
		JOINT RightUpLeg
		{
			OFFSET -1.305520 -1.794630 0.839290
			CHANNELS 3 Zrotation Yrotation Xrotation
			JOINT RightLeg
			{
				OFFSET -2.542530 -6.985550 0.000000
				CHANNELS 3 Zrotation Yrotation Xrotation
				JOINT RightFoot
				{
					OFFSET -2.568260 -7.056230 0.000000
					CHANNELS 3 Zrotation Yrotation Xrotation
					JOINT RightToeBase
					{
						OFFSET -0.164730 -0.452590 2.363150
						CHANNELS 3 Zrotation Yrotation Xrotation
						End Site
						{
							OFFSET 0.000000 0.000000 0.000000
						}
					}
				}
			}
		}
	}
	JOINT LowerBack
	{
		OFFSET 0.000000 0.000000 0.000000
		CHANNELS 3 Zrotation Yrotation Xrotation
		JOINT Spine
		{
			OFFSET 0.028270 2.035590 -0.193380
			CHANNELS 3 Zrotation Yrotation Xrotation
			JOINT Spine1
			{
				OFFSET 0.056720 2.048850 -0.042750
				CHANNELS 3 Zrotation Yrotation Xrotation
				JOINT Neck
				{
					OFFSET 0.000000 0.000000 0.000000
					CHANNELS 3 Zrotation Yrotation Xrotation
					JOINT Neck1
					{
						OFFSET -0.054170 1.746240 0.172020
						CHANNELS 3 Zrotation Yrotation Xrotation
						JOINT Head
						{
							OFFSET 0.104070 1.761360 -0.123970
							CHANNELS 3 Zrotation Yrotation Xrotation
							End Site
							{
								OFFSET 0.000000 0.000000 0.000000
							}
						}
					}
				}
				JOINT LeftShoulder
				{
					OFFSET 0.000000 0.000000 0.000000
					CHANNELS 3 Zrotation Yrotation Xrotation
					JOINT LeftArm
					{
						OFFSET 3.362410 1.200890 -0.311210
						CHANNELS 3 Zrotation Yrotation Xrotation
						JOINT LeftForeArm
						{
							OFFSET 4.983000 -0.000000 -0.000000
							CHANNELS 3 Zrotation Yrotation Xrotation
							JOINT LeftHand
							{
								OFFSET 3.483560 -0.000000 -0.000000
								CHANNELS 3 Zrotation Yrotation Xrotation
								JOINT LeftFingerBase
								{
									OFFSET 0.000000 0.000000 0.000000
									CHANNELS 3 Zrotation Yrotation Xrotation
									JOINT LeftHandIndex1
									{
										OFFSET 0.715260 -0.000000 -0.000000
										CHANNELS 3 Zrotation Yrotation Xrotation
										End Site
										{
											OFFSET 0.000000 0.000000 0.000000
										}
									}
								}
								JOINT LThumb
								{
									OFFSET 0.000000 0.000000 0.000000
									CHANNELS 3 Zrotation Yrotation Xrotation
									End Site
									{
										OFFSET 0.000000 0.000000 0.000000
									}
								}
							}
						}
					}
				}
				JOINT RightShoulder
				{
					OFFSET 0.000000 0.000000 0.000000
					CHANNELS 3 Zrotation Yrotation Xrotation
					JOINT RightArm
					{
						OFFSET -3.136600 1.374050 -0.404650
						CHANNELS 3 Zrotation Yrotation Xrotation
						JOINT RightForeArm
						{
							OFFSET -5.241900 -0.000000 -0.000000
							CHANNELS 3 Zrotation Yrotation Xrotation
							JOINT RightHand
							{
								OFFSET -3.444170 -0.000000 -0.000000
								CHANNELS 3 Zrotation Yrotation Xrotation
								JOINT RightFingerBase
								{
									OFFSET 0.000000 0.000000 0.000000
									CHANNELS 3 Zrotation Yrotation Xrotation
									JOINT RightHandIndex1
									{
										OFFSET -0.622530 -0.000000 -0.000000
										CHANNELS 3 Zrotation Yrotation Xrotation
										End Site
										{
											OFFSET 0.000000 0.000000 0.000000
										}
									}
								}
								JOINT RThumb
								{
									OFFSET 0.000000 0.000000 0.000000
									CHANNELS 3 Zrotation Yrotation Xrotation
									End Site
									{
										OFFSET 0.000000 0.000000 0.000000
									}
								}
							}
						}
					}
				}
			}
		}
	}
}
MOTION
Frames: 8
Frame Time: 0.008333
15.631039 17.796649 -11.203499 34.818960 -81.048503 -35.112135 -4.335907 2.140789 3.359128 -7.736442 -6.564527 -7.422663 -1.110271 6.159844 17.502133 1.145641 -3.470493 4.596110 2.760700 -10.297200 -29.944700 1.038894 -1.452889 1.475209 -3.270534 13.043430 -1.135011 -2.243894 -10.432105 29.599757 3.158897 -13.957033 2.927656 -0.018400 -0.876400 2.408800 0.514168 1.491308 8.893511 0.886300 2.016774 0.319580 -1.377513 1.067856 -3.878906 -10.968089 -1.942176 -15.011247 2.367822 -1.187163 22.966344 3.139900 -2.279500 15.803400 -6.693026 -1.461460 -1.699211 -82.372567 1.126999 12.485942 15.331093 -21.991225 -3.716189 -1.644569 -2.587362 5.057762 19.407457 20.885528 8.650700 -7.125000 0.000000 0.000000 -8.931700 54.771700 -2.156700 5.455766 1.587304 -1.218602 76.928160 -0.255994 0.281869 -14.996632 22.861608 -3.440806 0.430499 -0.234500 9.729490 -14.869814 8.065630 -2.242900 7.125000 0.000000 0.000000 8.336900 -21.503700 4.750100 
15.636920 17.807498 -11.076456 33.935232 -80.743734 -34.286325 -4.397279 2.121709 3.366688 -8.129080 -6.575633 -7.394103 -1.116782 6.146642 17.502740 1.265649 -4.162968 4.453262 2.610600 -10.036300 -29.094200 1.030059 -1.450591 1.432642 -3.317764 13.040174 -1.357823 -2.430968 -10.654019 30.234101 3.576470 -15.567573 3.519257 -0.068500 -1.688200 4.644800 0.436208 1.441135 8.953955 0.950768 1.943892 0.345778 -1.183111 1.028235 -3.848106 -11.075493 -2.023986 -14.987405 2.326937 -1.258744 22.943179 3.122600 -2.324000 15.790100 -6.703647 -1.466241 -1.691950 -82.622451 0.948715 12.642795 15.228153 -21.820691 -3.660173 -1.644275 -2.580566 5.172540 19.277028 20.822236 8.567400 -7.125000 0.000000 0.000000 -9.044700 54.676700 -2.163300 5.469986 1.593709 -1.214062 76.765353 -0.270740 0.273591 -14.998221 22.857385 -3.438310 0.438291 -0.228553 9.450604 -14.952385 7.994183 -2.235600 7.125000 0.000000 0.000000 8.275400 -21.578200 4.700200 
15.642091 17.826154 -10.952151 33.246194 -80.438762 -33.591806 -4.462351 2.102789 3.375019 -8.557657 -6.574668 -7.381117 -1.136853 6.098391 17.403570 1.364938 -4.769188 4.395875 2.554600 -9.936400 -28.771100 1.028904 -1.442067 1.386166 -3.378937 13.121167 -1.621483 -2.627737 -10.880124 30.886579 3.984854 -17.158624 4.047199 -0.289100 -3.457700 9.555800 0.370196 1.389543 8.942755 0.971442 1.868892 0.365774 -1.089011 0.989425 -3.780451 -11.145057 -2.115595 -15.009630 2.382456 -1.370767 22.969178 3.146000 -2.371100 15.822400 -6.722011 -1.465442 -1.684171 -82.690737 0.756945 12.961186 15.086094 -21.605311 -3.586971 -1.677434 -2.565134 5.301829 19.466159 20.756709 8.637800 -7.125000 0.000000 0.000000 -8.789400 54.640000 -2.093600 5.475486 1.606510 -1.207997 76.819640 -0.217195 -0.028882 -15.016157 22.878032 -3.444603 0.438116 -0.224690 9.381920 -14.922373 7.951861 -2.218500 7.125000 0.000000 0.000000 8.299200 -21.626200 4.704800 
15.648783 17.845418 -10.836970 32.881853 -80.124010 -33.255039 -4.513406 2.080850 3.394567 -9.039318 -6.218747 -7.450323 -1.153029 6.035963 17.276687 1.475240 -5.468457 4.500701 2.533000 -9.897700 -28.646000 1.035940 -1.432464 1.340104 -3.396030 13.338048 -1.770300 -2.817225 -11.099172 31.518192 4.419402 -18.793076 4.260484 -0.858300 -5.908100 16.518000 0.192030 1.304810 8.975101 0.966643 1.734084 0.390990 -0.980050 0.922133 -3.723452 -11.146875 -2.152403 -15.031062 2.498126 -1.439829 23.025008 3.192700 -2.386500 15.865400 -6.738520 -1.464700 -1.675809 -82.625125 0.590547 13.323384 14.958901 -21.424486 -3.523855 -1.731844 -2.581888 5.263298 19.901913 21.022090 8.954500 -7.125000 0.000000 0.000000 -8.394100 55.023500 -2.077000 5.478036 1.620577 -1.201835 76.994679 -0.132768 -0.181874 -15.037891 22.898694 -3.451327 0.440327 -0.223299 9.371103 -14.966948 7.927196 -2.218300 7.125000 0.000000 0.000000 8.266400 -21.651200 4.681100 
15.651115 17.864378 -10.725745 32.585167 -79.888678 -33.058262 -4.557151 2.077530 3.435338 -9.495557 -5.790314 -7.398580 -1.176220 5.940887 17.058586 1.567277 -6.092379 4.590809 2.507700 -9.851900 -28.498400 1.052626 -1.428552 1.284914 -3.285978 13.686637 -1.808168 -3.018051 -11.329099 32.155488 4.985735 -20.885516 4.333124 -1.486800 -7.703600 21.817300 0.031484 1.223054 9.020635 0.963379 1.606123 0.430161 -0.873478 0.856105 -3.653122 -11.154760 -2.191871 -14.961777 2.637947 -1.523619 23.016941 3.251800 -2.402100 15.846300 -6.755716 -1.459347 -1.663826 -82.473198 0.459556 13.765502 14.826485 -21.242106 -3.463014 -1.735528 -2.586205 4.898891 19.968511 20.954933 8.967700 -7.125000 0.000000 0.000000 -8.273800 54.964600 -2.035000 5.480741 1.632040 -1.193288 77.158467 -0.085836 -0.196216 -15.044595 22.902919 -3.452739 0.440784 -0.222806 9.421495 -14.980948 7.915303 -2.217000 7.125000 0.000000 0.000000 8.256300 -21.663800 4.672900 
15.651926 17.884048 -10.617560 31.955133 -79.681634 -32.487455 -4.615344 2.078072 3.474906 -9.855786 -5.638037 -7.262157 -1.206525 5.839322 16.809415 1.613681 -6.445954 4.541986 2.352200 -9.564000 -27.576100 1.065034 -1.427718 1.234622 -3.113415 13.860935 -1.990434 -3.216486 -11.547735 32.781853 5.564342 -22.964944 4.197759 -1.653500 -8.103600 23.029200 -0.111095 1.154653 9.065015 1.029946 1.501456 0.417363 -0.611755 0.797988 -3.709380 -11.377359 -2.254780 -14.823307 2.741129 -1.573883 23.064635 3.337400 -2.446900 15.851500 -6.765188 -1.450484 -1.662362 -82.482119 0.478285 14.184062 14.702845 -21.068116 -3.406532 -1.732542 -2.562516 4.792981 19.917555 20.663172 8.834700 -7.125000 0.000000 0.000000 -8.197300 54.628100 -1.948800 5.488579 1.639466 -1.191010 77.090468 -0.157695 -0.246189 -15.049245 22.907198 -3.454096 0.437323 -0.226269 9.510829 -14.940558 7.992698 -2.232500 7.125000 0.000000 0.000000 8.284900 -21.583000 4.704800 
15.655677 17.900372 -10.514344 31.621941 -79.385269 -32.141924 -4.684257 2.068272 3.497664 -10.279594 -5.641402 -7.129338 -1.240891 5.741263 16.567770 1.629336 -6.642654 4.488236 2.276900 -9.420400 -27.119500 1.064469 -1.412584 1.199463 -3.039543 13.869983 -2.310754 -3.377608 -11.735339 33.404782 5.866083 -23.949101 3.757701 -2.014200 -8.895600 25.469300 -0.435854 1.118380 9.074447 1.128076 1.415351 0.389867 -0.175646 0.749108 -3.785217 -11.668815 -2.332831 -14.726134 2.733368 -1.600749 23.148916 3.377700 -2.507200 15.888300 -6.768651 -1.451490 -1.664215 -82.665961 0.476251 14.613713 14.594958 -20.906768 -3.355909 -1.745836 -2.551755 5.129301 19.857289 20.673749 8.810400 -7.125000 0.000000 0.000000 -8.265400 54.625900 -1.964600 5.505734 1.640696 -1.191892 76.927895 -0.215088 -0.443355 -15.032716 22.876294 -3.443461 0.438729 -0.235782 9.839751 -15.058189 8.092876 -2.280200 7.125000 0.000000 0.000000 8.193900 -21.468400 4.673600 
15.660037 17.915581 -10.412953 31.280618 -79.120388 -31.780705 -4.749334 2.054543 3.505167 -10.695892 -5.717322 -7.004281 -1.267711 5.673403 16.399730 1.616016 -6.654337 4.315893 2.398400 -9.650700 -27.852900 1.062978 -1.375718 1.173446 -2.907251 13.915874 -2.621614 -3.483724 -11.891813 34.035708 5.810197 -23.555024 2.948872 -2.031400 -8.931200 25.580400 -0.666762 1.070519 9.031795 1.150507 1.323438 0.396760 0.028750 0.700553 -3.733022 -11.618375 -2.364862 -14.731596 2.692491 -1.660405 23.169504 3.333700 -2.528300 15.900700 -6.768341 -1.463068 -1.658092 -82.517732 0.379574 15.506017 14.520809 -20.808887 -3.328464 -1.732793 -2.579091 4.936290 19.714064 20.876085 8.821300 -7.125000 0.000000 0.000000 -8.508200 54.825100 -2.064300 5.516628 1.635835 -1.191405 77.108478 -0.151424 -0.781685 -15.008589 22.838962 -3.431038 0.438023 -0.257278 10.262640 -15.214005 8.406552 -2.396700 7.125000 0.000000 0.000000 8.069400 -21.121200 4.665200 
